<svg width="960" height="192" viewBox="0 0 960 192" fill="none" xmlns="http://www.w3.org/2000/svg">
<g clip-path="url(#clip0_40_500)">
<mask id="mask0_40_500" style="mask-type:luminance" maskUnits="userSpaceOnUse" x="0" y="0" width="960" height="192">
<path d="M960 0H0V192H960V0Z" fill="white"/>
</mask>
<g mask="url(#mask0_40_500)">
<path d="M617.41 97.312H611.492C605.834 97.312 602.283 99.642 600.946 104.238L587.001 152.629C586.895 152.995 586.687 153.324 586.401 153.576C586.115 153.829 585.763 153.994 585.386 154.054C585.021 154.117 584.645 154.066 584.309 153.909C583.974 153.751 583.695 153.494 583.511 153.172L556.021 104.599C553.338 99.744 551.992 97.311 545.038 97.311H531.684C524.308 97.311 519.912 100.63 517.851 107.76L499.474 169.645C498.894 171.655 498.982 173.196 499.743 174.226C500.685 175.498 502.723 176.143 505.81 176.143H511.755C517.321 176.143 520.821 173.813 522.155 169.217L536.549 120.862C536.658 120.498 536.868 120.172 537.155 119.922C537.441 119.672 537.793 119.509 538.169 119.451C538.264 119.436 538.361 119.429 538.457 119.428C538.778 119.426 539.093 119.51 539.37 119.67C539.648 119.831 539.877 120.063 540.035 120.342L567.802 169.599C570.128 173.512 571.808 176.344 578.302 176.344H592.047C599.339 176.344 603.698 173.02 605.759 165.89L623.649 103.814C624.215 101.823 624.104 100.281 623.324 99.228C622.368 97.957 620.381 97.312 617.41 97.312Z" fill="white"/>
<path d="M352.638 176.344H342.425C341.43 176.344 340.449 176.113 339.559 175.669C338.669 175.225 337.894 174.581 337.296 173.786C336.697 172.992 336.291 172.07 336.11 171.092C335.929 170.114 335.977 169.107 336.251 168.151L355.294 101.958C355.679 100.618 356.489 99.439 357.603 98.5999C358.717 97.7609 360.074 97.3071 361.468 97.3069H371.68C372.675 97.3072 373.655 97.5384 374.545 97.9822C375.435 98.4261 376.21 99.0706 376.809 99.8648C377.407 100.659 377.813 101.581 377.995 102.559C378.176 103.537 378.128 104.544 377.854 105.5L358.811 171.695C358.425 173.034 357.615 174.212 356.501 175.051C355.388 175.889 354.032 176.343 352.638 176.344Z" fill="white"/>
<path d="M392.693 97.303H383.793C382.647 97.3033 381.517 97.0374 380.491 96.5264C379.465 96.0154 378.573 95.2732 377.883 94.3583C377.193 93.4433 376.725 92.3807 376.515 91.254C376.306 90.1274 376.362 88.9676 376.677 87.866L380.191 75.607C380.575 74.2674 381.385 73.0893 382.498 72.2509C383.611 71.4124 384.967 70.9593 386.36 70.96H396.56C397.554 70.9596 398.534 71.19 399.423 71.6331C400.312 72.0762 401.087 72.7198 401.685 73.5132C402.283 74.3067 402.689 75.2282 402.87 76.2052C403.051 77.1821 403.003 78.1878 402.729 79.1429L398.858 92.6559C398.473 93.9944 397.664 95.1714 396.552 96.0096C395.44 96.8479 394.086 97.3018 392.693 97.303Z" fill="white"/>
<path d="M489.434 143.146C482.908 165.91 461.003 177.709 428.398 177.709C395.793 177.709 380.652 165.909 387.183 143.146L390.808 130.501C397.302 107.844 420.158 95.938 451.844 95.938C483.53 95.938 499.558 107.844 493.059 130.501L489.434 143.146ZM469.061 131.446C473.503 115.956 466.132 109.634 447.917 109.634C429.702 109.634 418.706 115.956 414.263 131.446L411.181 142.196C406.706 157.796 414.11 164.008 432.325 164.008C450.54 164.008 461.509 157.793 465.979 142.196L469.061 131.446Z" fill="white"/>
</g>
</g>
<defs>
<clipPath id="clip0_40_500">
<rect width="960" height="192" fill="white"/>
</clipPath>
</defs>
</svg>
