<svg width="24" height="24" viewBox="0 0 24 24" fill="none" xmlns="http://www.w3.org/2000/svg">
<path d="M20.82 8.95122C20.7344 8.30508 20.4882 7.69069 20.104 7.16422C19.6274 6.68351 18.9808 6.40977 18.304 6.40222C15.785 6.22022 12.004 6.22021 12.004 6.22021H11.996C11.996 6.22021 8.21798 6.22022 5.69598 6.40222C5.01917 6.40987 4.37257 6.6836 3.89598 7.16422C3.51209 7.69079 3.26627 8.30517 3.18098 8.95122C3.06894 9.9183 3.00885 10.8907 3.00098 11.8642V13.2272C3.00884 14.2007 3.06893 15.1731 3.18098 16.1402C3.26602 16.7863 3.51187 17.4008 3.89598 17.9272C4.44395 18.4134 5.14848 18.6863 5.88098 18.6962C7.32098 18.8342 12.001 18.8772 12.001 18.8772C12.001 18.8772 15.783 18.8712 18.301 18.6892C18.9778 18.6818 19.6245 18.408 20.101 17.9272C20.4852 17.4007 20.7314 16.7864 20.817 16.1402C20.929 15.1731 20.9891 14.2007 20.997 13.2272V11.8612C20.9899 10.8888 20.9309 9.91736 20.82 8.95122ZM10.142 14.8852V9.82721L15.006 12.3652L10.142 14.8852Z" fill="white"/>
</svg>
