<svg width="24" height="24" viewBox="0 0 24 24" fill="none" xmlns="http://www.w3.org/2000/svg">
<g clip-path="url(#clip0_200_2304)">
<mask id="mask0_200_2304" style="mask-type:luminance" maskUnits="userSpaceOnUse" x="0" y="0" width="24" height="24">
<path d="M24 0H0V24H24V0Z" fill="white"/>
</mask>
<g mask="url(#mask0_200_2304)">
<path d="M8.67303 10.4141H5.48303V19.6951H8.67303V10.4141Z" fill="white"/>
<path d="M15.827 10.317C16.6697 10.2757 17.4974 10.5515 18.147 11.09C18.951 11.9904 19.3678 13.1714 19.307 14.377V19.694H16.12V15.054C16.1515 14.6154 16.0504 14.1775 15.83 13.797C15.7181 13.6777 15.5835 13.582 15.4341 13.5155C15.2847 13.4491 15.1235 13.4132 14.96 13.41C14.7215 13.4157 14.4885 13.4821 14.283 13.603C14.0517 13.725 13.8781 13.9335 13.8 14.183C13.6795 14.5253 13.6134 14.8843 13.604 15.247V19.597H10.22V10.317H13.41V13.024L12.637 12.251C12.9974 11.6005 13.5335 11.0645 14.184 10.704C14.6867 10.4292 15.2544 10.2955 15.827 10.317Z" fill="white"/>
<path d="M7.127 5C7.54768 5 7.95891 5.12475 8.3087 5.35846C8.65848 5.59218 8.9311 5.92437 9.09209 6.31303C9.25308 6.70169 9.2952 7.12936 9.21313 7.54196C9.13106 7.95455 8.92848 8.33355 8.63102 8.63102C8.33355 8.92848 7.95455 9.13106 7.54196 9.21313C7.12936 9.2952 6.70169 9.25308 6.31303 9.09209C5.92437 8.9311 5.59218 8.65848 5.35846 8.3087C5.12475 7.95891 5 7.54768 5 7.127C4.99987 6.84764 5.0548 6.571 5.16164 6.31288C5.26849 6.05476 5.42515 5.82023 5.62269 5.62269C5.82023 5.42515 6.05476 5.26849 6.31288 5.16164C6.571 5.0548 6.84764 4.99987 7.127 5Z" fill="white"/>
</g>
</g>
<defs>
<clipPath id="clip0_200_2304">
<rect width="24" height="24" fill="white"/>
</clipPath>
</defs>
</svg>
