<svg width="24" height="24" viewBox="0 0 24 24" fill="none" xmlns="http://www.w3.org/2000/svg">
<g clip-path="url(#clip0_200_2314)">
<path d="M19.893 8.245C18.7621 8.24742 17.6763 7.80241 16.8723 7.00711C16.0684 6.21181 15.6117 5.13079 15.602 4H12.832V11.566V15.709C12.831 16.2358 12.6642 16.749 12.3553 17.1758C12.0465 17.6026 11.6111 17.9214 11.111 18.087C10.812 18.1869 10.4967 18.2286 10.182 18.21C9.53086 18.1732 8.91975 17.884 8.47844 17.4038C8.03712 16.9237 7.80035 16.2904 7.81845 15.6385C7.83654 14.9866 8.10806 14.3674 8.57533 13.9124C9.0426 13.4575 9.66882 13.2027 10.321 13.202C10.5889 13.2029 10.8551 13.2454 11.11 13.328V10.521C10.2313 10.3888 9.33351 10.4772 8.49751 10.7784C7.66151 11.0795 6.91354 11.5838 6.32098 12.246C5.43069 13.2429 4.95842 14.5442 5.00218 15.88C5.04594 17.2159 5.60237 18.4835 6.55598 19.42C6.71399 19.5756 6.88094 19.7218 7.05598 19.858C8.0807 20.642 9.35414 21.0294 10.6418 20.9489C11.9296 20.8684 13.1448 20.3255 14.064 19.42C14.5549 18.9391 14.9453 18.3655 15.2124 17.7323C15.4796 17.0992 15.6181 16.4192 15.62 15.732L15.607 9.543C16.0837 9.91167 16.6068 10.216 17.163 10.448C18.0286 10.814 18.9592 11.0014 19.899 10.999V8.242H19.892L19.893 8.245Z" fill="white"/>
</g>
<defs>
<clipPath id="clip0_200_2314">
<rect width="24" height="24" fill="white"/>
</clipPath>
</defs>
</svg>
