<svg width="24" height="24" viewBox="0 0 24 24" fill="none" xmlns="http://www.w3.org/2000/svg">
<path d="M8.29 20.945C7.54159 20.9307 6.80105 20.7894 6.1 20.527C5.50138 20.3001 4.95897 19.9463 4.51 19.49C4.05177 19.0387 3.69783 18.4926 3.473 17.89C3.21115 17.1909 3.06981 16.4524 3.055 15.706C3.011 14.751 3 14.444 3 12C3 9.556 3.011 9.25 3.055 8.289C3.06936 7.54093 3.21071 6.80073 3.473 6.1C3.69899 5.50122 4.05288 4.95894 4.51 4.511C4.95838 4.0537 5.50094 3.6995 6.1 3.473C6.80084 3.20986 7.54151 3.06849 8.29 3.055C9.249 3.01 9.555 3 12 3C14.445 3 14.75 3.01 15.71 3.055C16.4585 3.06849 17.1992 3.20986 17.9 3.473C18.4991 3.69938 19.0417 4.0536 19.49 4.511C19.9471 4.95894 20.301 5.50122 20.527 6.1C20.7889 6.79912 20.9302 7.5376 20.945 8.284C20.989 9.249 21 9.556 21 12C21 14.444 20.989 14.751 20.945 15.711C20.9303 16.4574 20.789 17.1959 20.527 17.895C20.2968 18.4926 19.9441 19.0354 19.4917 19.4887C19.0393 19.942 18.4971 20.2956 17.9 20.527C17.2002 20.789 16.4611 20.9303 15.714 20.945C14.751 20.989 14.445 21 12 21C9.555 21 9.249 20.989 8.29 20.945ZM8.364 4.674C7.79309 4.68059 7.22755 4.7851 6.692 4.983C6.30145 5.12846 5.94798 5.35864 5.657 5.657C5.35845 5.94743 5.12882 6.3011 4.985 6.692C4.78587 7.2269 4.68099 7.79227 4.675 8.363C4.631 9.312 4.622 9.6 4.622 12C4.622 14.4 4.63 14.689 4.674 15.637C4.68013 16.2077 4.78501 16.7731 4.984 17.308C5.12803 17.6988 5.35763 18.0524 5.656 18.343C5.94663 18.6415 6.30022 18.8715 6.691 19.016C7.2264 19.2146 7.792 19.3194 8.363 19.326C9.312 19.37 9.596 19.378 12 19.378C14.404 19.378 14.687 19.37 15.636 19.326C16.207 19.3194 16.7726 19.2145 17.308 19.016C17.6961 18.8666 18.0485 18.6375 18.3425 18.3435C18.6365 18.0495 18.8656 17.6971 19.015 17.309C19.2134 16.7739 19.3182 16.2087 19.325 15.638C19.369 14.69 19.377 14.404 19.377 12.001C19.377 9.598 19.369 9.314 19.325 8.365C19.3184 7.79433 19.2135 7.22907 19.015 6.694C18.8712 6.3031 18.6416 5.94943 18.343 5.659C18.052 5.36064 17.6986 5.13046 17.308 4.985C16.7724 4.78712 16.2069 4.68261 15.636 4.676C14.688 4.631 14.4 4.621 12 4.621C9.6 4.621 9.312 4.631 8.364 4.674ZM7.378 12C7.3778 11.0858 7.64871 10.1921 8.15646 9.43188C8.66421 8.67167 9.386 8.0791 10.2305 7.72912C11.0751 7.37913 12.0044 7.28746 12.9011 7.46569C13.7977 7.64392 14.6214 8.08404 15.2679 8.7304C15.9144 9.37676 16.3547 10.2003 16.5331 11.0969C16.7115 11.9935 16.6201 12.9229 16.2703 13.7675C15.9205 14.6122 15.3281 15.3341 14.5679 15.842C13.8078 16.3499 12.9142 16.621 12 16.621C10.7743 16.621 9.59887 16.1342 8.73211 15.2676C7.86534 14.401 7.37826 13.2257 7.378 12ZM9 12C9 12.5933 9.17595 13.1734 9.50559 13.6667C9.83524 14.1601 10.3038 14.5446 10.8519 14.7716C11.4001 14.9987 12.0033 15.0581 12.5853 14.9424C13.1672 14.8266 13.7018 14.5409 14.1213 14.1213C14.5409 13.7018 14.8266 13.1672 14.9424 12.5853C15.0581 12.0033 14.9987 11.4001 14.7716 10.8519C14.5446 10.3038 14.1601 9.83524 13.6667 9.50559C13.1734 9.17595 12.5933 9 12 9C11.2044 9 10.4413 9.31607 9.87868 9.87868C9.31607 10.4413 9 11.2044 9 12ZM15.723 7.2C15.7222 6.9861 15.785 6.77678 15.9033 6.59859C16.0216 6.42039 16.1902 6.28134 16.3876 6.19908C16.5851 6.11681 16.8025 6.09503 17.0123 6.13649C17.2222 6.17795 17.415 6.28079 17.5663 6.43197C17.7176 6.58316 17.8207 6.77587 17.8623 6.98567C17.904 7.19548 17.8824 7.41293 17.8003 7.61045C17.7182 7.80798 17.5793 7.97668 17.4012 8.09517C17.2232 8.21366 17.0139 8.27659 16.8 8.276C16.5141 8.27494 16.2403 8.16055 16.0386 7.95791C15.8369 7.75527 15.7237 7.48092 15.724 7.195L15.723 7.2Z" fill="white"/>
</svg>
