<svg width="130" height="16" viewBox="0 0 130 16" fill="none" xmlns="http://www.w3.org/2000/svg">
<g clip-path="url(#clip0_94_780)">
<path d="M23.2309 5.22611e-05C22.7474 4.67185 19.9374 8.65615 15.9735 10.785C15.8615 10.8452 15.7576 10.6932 15.8551 10.6119C18.9224 8.04153 20.9284 4.25604 21.1243 0H17.2344C16.7551 3.6186 14.4948 6.67787 11.3582 8.27567C11.2478 8.33171 11.1485 8.18471 11.2408 8.10235C13.5026 6.08531 14.9803 3.21521 15.1659 0.000135836H11.2668C10.9913 1.64236 10.1583 3.06575 9.08692 4.25006C6.45263 7.16283 2.19916 7.48574 0.135073 7.3227C0.135073 7.3227 0.0378146 7.3068 0.00711665 7.38473C-0.0259056 7.46839 0.0667083 7.52104 0.0667083 7.52104C3.49826 9.46718 6.22961 11.3086 11.2044 15.006C12.4261 15.9137 13.5809 16.1762 14.7939 15.8892C22.5489 14.0531 27.0612 5.95055 27.1099 0.000246837L23.2309 5.22611e-05Z" fill="#EC6608"/>
<path d="M39.1394 1.34126L37.72 6.37537H33.8348L35.2541 1.34126H30.8843L27.1099 14.6608H31.4709L32.9757 9.40929H36.8629L35.3584 14.6608H39.7347L43.5072 1.34126H39.1394ZM50.9053 11.9477L48.7893 12.009C48.2582 12.009 47.7672 12.0322 47.3738 11.6071C47.1117 11.324 46.9335 10.8539 47.0325 10.3798C47.3153 9.02919 48.8513 8.82849 50.1196 8.82849H51.8034L50.9053 11.9477ZM56.9144 2.79391C56.5826 2.17205 55.9725 1.72819 55.0503 1.43784C54.3449 1.22048 53.4459 1.09095 52.3725 1.05341C52.3335 1.05341 48.4844 0.991636 46.1648 1.44853L45.4259 4.09228C47.7648 3.82408 49.9817 3.74772 50.9395 3.77847C51.9778 3.8134 52.4726 3.94971 52.7038 4.26612C52.9035 4.53874 52.9207 4.94664 52.7047 5.66832L52.5623 6.19165H50.9179C46.3253 6.19165 43.6146 6.7846 42.775 9.90513C42.453 11.1051 42.6027 12.3614 43.2755 13.247C43.9963 14.1986 44.9711 14.6609 46.6425 14.6609H54.397L56.9026 5.95615C57.311 4.57846 57.3163 3.54571 56.9144 2.79391ZM111.339 7.22198L110.882 8.82852C110.279 10.9514 109.306 11.8565 107.628 11.8565C106.874 11.8565 106.369 11.672 106.087 11.2962C105.719 10.8083 105.71 10.0084 106.056 8.78015L106.514 7.17153C107.119 5.05103 108.092 4.14554 109.767 4.14554C110.522 4.14554 111.026 4.32798 111.311 4.70355C111.679 5.1938 111.688 5.99358 111.339 7.22198ZM115.426 2.65988C114.615 1.57851 113.025 1.03144 110.704 1.03144C106.202 1.03144 103.343 3.05758 102.211 7.05285L101.656 8.9977C101.12 10.8899 101.225 12.3514 101.969 13.34C102.781 14.4211 104.37 14.9685 106.694 14.9685C111.196 14.9685 114.052 12.9423 115.185 8.94704L115.739 7.00222C116.278 5.11237 116.173 3.65103 115.426 2.65988ZM96.0989 7.22209L95.6413 8.82863C95.0366 10.9515 94.065 11.8567 92.3879 11.8567C91.6331 11.8567 91.1287 11.6721 90.8439 11.2963C90.4763 10.8084 90.467 10.0085 90.8155 8.78026L91.2732 7.17164C91.8781 5.05114 92.8497 4.14565 94.5265 4.14565C95.2814 4.14565 95.7857 4.3281 96.0705 4.70366C96.4381 5.19391 96.4477 5.9937 96.0989 7.22209ZM100.186 2.65999C99.374 1.57862 97.7846 1.03155 95.4639 1.03155C90.9612 1.03155 88.1028 3.0577 86.9702 7.05296L86.4158 8.99781C85.8777 10.89 85.9845 12.3515 86.729 13.3401C87.5406 14.4212 89.13 14.9686 91.4507 14.9686C95.9534 14.9686 98.8118 12.9424 99.9444 8.94715L100.499 7.00233C101.037 5.11248 100.93 3.65114 100.186 2.65999ZM82.3288 8.27473L85.0086 14.6607H80.4929L78.0659 8.00888L76.2056 14.6607H71.8638L75.6538 1.33893H79.9909L78.3241 7.11646C78.3241 7.11646 80.986 5.69993 83.0819 1.33893H87.6715C85.4687 6.11172 82.3285 8.2745 82.3285 8.2745M71.9994 5.15816L69.3485 14.6605H65.0092L67.411 6.04899C67.6117 5.30827 67.7498 4.71559 67.4595 4.43621C67.1995 4.18601 66.8226 4.15473 66.3572 4.15473L64.1053 4.22276L61.1372 14.6605H56.8L60.5747 1.34328C61.0893 1.31669 64.9463 1.13217 68.777 1.04199C70.2464 1.00472 71.2589 1.33886 71.7946 2.03317C72.3231 2.72097 72.3926 3.77367 71.9997 5.15811M125.986 8.27445L128.665 14.6604H124.15L121.723 8.00861L119.862 14.6604H115.521L119.311 1.33866H123.648L121.981 7.11619C121.981 7.11619 124.643 5.69966 126.739 1.33866H131.328C129.125 6.11145 125.985 8.27423 125.985 8.27423" fill="white"/>
</g>
<defs>
<clipPath id="clip0_94_780">
<rect width="130" height="16" fill="white"/>
</clipPath>
</defs>
</svg>
