<svg width="58" height="58" viewBox="0 0 58 58" fill="none" xmlns="http://www.w3.org/2000/svg">
<g clip-path="url(#clip0_95_673)">
<path d="M17.951 37.1917H40.5276" stroke="white" stroke-width="2.5" stroke-linecap="round" stroke-linejoin="round"/>
<path d="M42.0399 18.905C39.4064 17.9083 36.6138 17.3983 33.7981 17.3999C30.3368 17.4133 26.9193 18.1751 23.78 19.6329L20.88 21.0206C18.3573 22.2357 15.732 23.2253 13.0348 23.9778L7.5451 25.546C6.21232 25.9368 5.04085 26.7465 4.20421 27.8551C3.36758 28.9638 2.91027 30.3124 2.90002 31.7013V34.2388C2.90635 35.024 3.20786 35.7782 3.74465 36.3514C4.31249 36.8971 5.07126 37.1989 5.85875 37.1924H8.91752" stroke="white" stroke-width="2.5" stroke-linecap="round" stroke-linejoin="round"/>
<path d="M49.5574 37.1917H52.7474C53.3715 37.1911 53.9699 36.943 54.4113 36.5018C54.8528 36.0607 55.1012 35.4624 55.1022 34.8383V27.357C55.0831 26.9427 54.9631 26.5392 54.7527 26.1817C54.5424 25.8241 54.248 25.5233 53.8951 25.3053L46.5472 21.1438" stroke="white" stroke-width="2.5" stroke-linecap="round" stroke-linejoin="round"/>
<path d="M45.0421 40.7288C47.5358 40.7288 49.5574 38.7073 49.5574 36.2135C49.5574 33.7198 47.5358 31.6982 45.0421 31.6982C42.5484 31.6982 40.5268 33.7198 40.5268 36.2135C40.5268 38.7073 42.5484 40.7288 45.0421 40.7288Z" stroke="white" stroke-width="2.5" stroke-linecap="round" stroke-linejoin="round"/>
<path d="M13.4357 40.7288C15.9294 40.7288 17.951 38.7073 17.951 36.2135C17.951 33.7198 15.9294 31.6982 13.4357 31.6982C10.942 31.6982 8.92041 33.7198 8.92041 36.2135C8.92041 38.7073 10.942 40.7288 13.4357 40.7288Z" stroke="white" stroke-width="2.5" stroke-linecap="round" stroke-linejoin="round"/>
</g>
<defs>
<clipPath id="clip0_95_673">
<rect width="58" height="58" fill="white"/>
</clipPath>
</defs>
</svg>
