<svg width="24" height="24" viewBox="0 0 24 24" fill="none" xmlns="http://www.w3.org/2000/svg">
<g clip-path="url(#clip0_94_766)">
<path d="M18.031 16.9902L22.314 21.2722L20.899 22.6872L16.617 18.4042C15.0237 19.6815 13.042 20.3762 11 20.3732C6.032 20.3732 2 16.3412 2 11.3732C2 6.40525 6.032 2.37325 11 2.37325C15.968 2.37325 20 6.40525 20 11.3732C20.0029 13.4152 19.3082 15.397 18.031 16.9902ZM16.025 16.2482C17.2938 14.943 18.0025 13.1936 18 11.3732C18 7.50625 14.867 4.37325 11 4.37325C7.133 4.37325 4 7.50625 4 11.3732C4 15.2402 7.133 18.3732 11 18.3732C12.8204 18.3758 14.5697 17.6671 15.875 16.3982L16.025 16.2482Z" fill="#FF6900"/>
<path d="M19.3333 11.2066C19.3333 15.717 15.6025 19.3732 11 19.3732C6.39746 19.3732 2.66663 15.717 2.66663 11.2066C2.66663 6.69613 6.39746 3.03992 11 3.03992C15.6025 3.03992 19.3333 6.69613 19.3333 11.2066Z" stroke="#FF6900" stroke-width="1.5" stroke-linecap="round" stroke-linejoin="round"/>
<path d="M10.9999 16.5149C12.4365 16.5149 13.8143 15.9556 14.8301 14.9601C15.8459 13.9646 16.4166 12.6144 16.4166 11.2066C16.4166 9.79873 15.8459 8.44853 14.8301 7.45303C13.8143 6.45752 12.4365 5.89825 10.9999 5.89825M10.9999 16.5149C9.56333 16.5149 8.18558 15.9556 7.16976 14.9601C6.15393 13.9646 5.58325 12.6144 5.58325 11.2066C5.58325 9.79873 6.15393 8.44853 7.16976 7.45303C8.18558 6.45752 9.56333 5.89825 10.9999 5.89825M10.9999 16.5149V12.4316M10.9999 5.89825V9.98159M15.6916 8.55242L12.0833 10.5941M9.91742 11.8191L6.30909 13.8608M15.6916 13.8608L12.0833 11.8191M9.91742 10.5941L6.30909 8.55242" stroke="#FF6900" stroke-width="1.5" stroke-linecap="round" stroke-linejoin="round"/>
<path d="M12.25 11.2066C12.25 11.5315 12.1183 11.843 11.8839 12.0728C11.6495 12.3025 11.3315 12.4316 11 12.4316C10.6685 12.4316 10.3505 12.3025 10.1161 12.0728C9.8817 11.843 9.75 11.5315 9.75 11.2066C9.75 10.8817 9.8817 10.5701 10.1161 10.3404C10.3505 10.1106 10.6685 9.98158 11 9.98158C11.3315 9.98158 11.6495 10.1106 11.8839 10.3404C12.1183 10.5701 12.25 10.8817 12.25 11.2066Z" stroke="#FF6900" stroke-width="1.5" stroke-linecap="round" stroke-linejoin="round"/>
</g>
<defs>
<clipPath id="clip0_94_766">
<rect width="24" height="24" fill="white"/>
</clipPath>
</defs>
</svg>
