<svg width="58" height="58" viewBox="0 0 58 58" fill="none" xmlns="http://www.w3.org/2000/svg">
<g clip-path="url(#clip0_94_883)">
<path d="M42.7757 38.6549C43.3021 38.4908 43.7583 38.1548 44.0713 37.7008C44.7818 36.472 43.5341 34.3963 43.9082 32.9934C44.2707 31.6398 46.4007 30.4704 46.4007 29.0008C46.4007 27.5313 44.2699 26.3611 43.9074 25.0054C43.5333 23.6025 44.7774 21.5254 44.0706 20.2994C43.9284 20.0631 43.7333 19.8631 43.5007 19.715C42.4857 19.0328 40.7312 18.9088 39.9112 18.0896C38.9013 17.0789 38.9484 14.6502 37.7029 13.9295C36.4747 13.2183 34.3983 14.4668 32.9969 14.0919C31.6404 13.7294 30.4696 11.6008 29.0007 11.6008C27.5319 11.6008 26.3603 13.7302 25.0052 14.0927C23.6024 14.4675 21.5252 13.2227 20.2978 13.9303C19.0523 14.6509 19.1008 17.0797 18.0895 18.0903C17.0781 19.101 14.6501 19.0524 13.9287 20.3008C13.2189 21.529 14.4666 23.6047 14.0918 25.0068C13.7293 26.3618 11.6007 27.5313 11.6007 29.0008C11.6007 30.4704 13.73 31.6406 14.0925 32.9963C14.4674 34.3992 13.2225 36.4763 13.9294 37.7023C14.6501 38.9478 17.0788 38.9007 18.0902 39.9114C19.1016 40.922 19.053 43.3515 20.3007 44.0721C21.5289 44.7834 23.6053 43.5349 25.0081 43.9097C26.3603 44.2722 27.5304 46.4008 29.0007 46.4008C30.471 46.4008 31.6404 44.2715 32.9962 43.909C34.3983 43.5342 36.4762 44.779 37.7022 44.0714C38.331 43.5616 38.7594 42.8459 38.9115 42.0508" stroke="white" stroke-width="3" stroke-linecap="round" stroke-linejoin="round"/>
<path d="M22.3728 28.9363L26.5778 33.1413L34.8645 24.8574" stroke="white" stroke-width="3" stroke-linecap="round" stroke-linejoin="round"/>
</g>
<defs>
<clipPath id="clip0_94_883">
<rect width="58" height="58" fill="white"/>
</clipPath>
</defs>
</svg>
