<svg width="58" height="58" viewBox="0 0 58 58" fill="none" xmlns="http://www.w3.org/2000/svg">
<g clip-path="url(#clip0_95_705)">
<path d="M43.6232 16.4734C43.5507 16.4009 43.484 16.3349 43.4123 16.2682C41.6814 14.6493 39.3949 13.7568 37.025 13.7749C34.3321 13.7809 31.7512 14.8536 29.8475 16.7583L29.0123 17.5993L28.1713 16.7525C26.2654 14.8509 23.6847 13.7805 20.9924 13.7749C18.6224 13.7567 16.336 14.6492 14.6051 16.2682C13.6924 17.1263 12.9576 18.1559 12.4427 19.298C11.9279 20.4401 11.643 21.6725 11.6044 22.9247C11.5659 24.1769 11.7743 25.4244 12.2179 26.5961C12.6615 27.7677 13.3315 28.8405 14.1897 29.7532C14.2571 29.8257 14.3253 29.8982 14.3949 29.9649L28.9906 44.5613L43.5877 29.9649C44.8326 28.7272 45.7118 27.17 46.1284 25.4647C46.545 23.7594 46.483 21.9722 45.949 20.2999" stroke="white" stroke-width="2.5" stroke-linecap="round" stroke-linejoin="round"/>
<path d="M24.6493 28.2751H33.3493" stroke="white" stroke-width="2.5" stroke-linecap="round" stroke-linejoin="round"/>
<path d="M28.9993 32.625V23.925" stroke="white" stroke-width="2.5" stroke-linecap="round" stroke-linejoin="round"/>
</g>
<defs>
<clipPath id="clip0_95_705">
<rect width="58" height="58" fill="white"/>
</clipPath>
</defs>
</svg>
